<svg xmlns="http://www.w3.org/2000/svg" xmlns:xlink="http://www.w3.org/1999/xlink" width="1200" zoomAndPan="magnify" viewBox="0 0 900 255.749984" height="341" preserveAspectRatio="xMidYMid meet" version="1.0"><defs><g/><clipPath id="a7eab9ac42"><path d="M 26 16 L 306.382812 16 L 306.382812 214 L 26 214 Z M 26 16 " clip-rule="nonzero"/></clipPath><clipPath id="7f235943ed"><path d="M 140.03125 88.511719 L 192.375 88.511719 L 192.375 140.855469 L 140.03125 140.855469 Z M 140.03125 88.511719 " clip-rule="nonzero"/></clipPath><clipPath id="13bf03b69e"><path d="M 166.203125 88.511719 C 151.746094 88.511719 140.03125 100.230469 140.03125 114.683594 C 140.03125 129.136719 151.746094 140.855469 166.203125 140.855469 C 180.65625 140.855469 192.375 129.136719 192.375 114.683594 C 192.375 100.230469 180.65625 88.511719 166.203125 88.511719 Z M 166.203125 88.511719 " clip-rule="nonzero"/></clipPath></defs><g clip-path="url(#a7eab9ac42)"><path fill="#000000" d="M 141.550781 89.621094 C 128.03125 103.140625 128.027344 125.140625 141.550781 138.660156 C 155.070312 152.183594 177.074219 152.183594 190.59375 138.664062 C 204.117188 125.140625 204.117188 103.132812 190.597656 89.613281 C 177.074219 76.089844 155.074219 76.097656 141.550781 89.621094 Z M 224.015625 185.828125 C 226.035156 183.808594 227.921875 181.710938 229.71875 179.558594 C 220.085938 184.074219 209.632812 186.640625 198.929688 186.894531 C 180.160156 187.351562 151.625 181.105469 122.316406 148.890625 C 122.144531 148.71875 121.941406 148.574219 121.765625 148.398438 C 103.472656 130.105469 103.472656 100.339844 121.769531 82.046875 C 130.359375 73.457031 141.492188 68.941406 152.769531 68.429688 C 140.195312 60.976562 127.113281 57.15625 113.964844 57.449219 C 97.59375 57.820312 81.835938 64.613281 69.503906 76.269531 L 67.027344 78.746094 C 65.738281 80.085938 64.460938 81.414062 63.265625 82.851562 L 63.074219 82.703125 L 26.003906 119.773438 L 92.0625 185.832031 C 128.445312 222.214844 187.636719 222.207031 224.015625 185.828125 Z M 240.367188 43.523438 L 306.425781 109.585938 L 269.359375 146.65625 L 269.164062 146.507812 C 267.96875 147.945312 266.6875 149.273438 265.402344 150.613281 L 262.925781 153.089844 C 250.59375 164.746094 234.835938 171.535156 218.464844 171.910156 C 205.320312 172.199219 192.234375 168.382812 179.660156 160.929688 C 190.941406 160.414062 202.070312 155.90625 210.660156 147.3125 C 228.957031 129.019531 228.957031 99.253906 210.664062 80.960938 C 210.488281 80.78125 210.285156 80.640625 210.113281 80.464844 C 180.804688 48.257812 152.273438 42.003906 133.5 42.464844 C 122.792969 42.71875 112.34375 45.285156 102.710938 49.800781 C 104.507812 47.644531 106.394531 45.550781 108.414062 43.53125 C 144.796875 7.148438 203.984375 7.144531 240.367188 43.523438 " fill-opacity="1" fill-rule="nonzero"/></g><g clip-path="url(#7f235943ed)"><g clip-path="url(#13bf03b69e)"><path fill="#d51d48" d="M 140.03125 88.511719 L 192.375 88.511719 L 192.375 140.855469 L 140.03125 140.855469 Z M 140.03125 88.511719 " fill-opacity="1" fill-rule="nonzero"/></g></g><g fill="#000000" fill-opacity="1"><g transform="translate(344.427547, 146.85642)"><g><path d="M 38.75 0 L 29.15625 -16.234375 C 33.765625 -17.328125 38.484375 -21.359375 38.484375 -28.90625 C 38.484375 -36.828125 33.0625 -42.640625 24.171875 -42.640625 L 4.21875 -42.640625 L 4.21875 0 L 13.296875 0 L 13.296875 -15.28125 L 19.953125 -15.28125 L 28.328125 0 Z M 29.21875 -28.96875 C 29.21875 -25.390625 26.46875 -23.078125 22.828125 -23.078125 L 13.296875 -23.078125 L 13.296875 -34.84375 L 22.828125 -34.84375 C 26.46875 -34.84375 29.21875 -32.546875 29.21875 -28.96875 Z M 29.21875 -28.96875 "/></g></g></g><g fill="#000000" fill-opacity="1"><g transform="translate(404.718074, 146.85642)"><g><path d="M 4.21875 -17 C 4.21875 -6.515625 10.296875 0.765625 23.34375 0.765625 C 36.25 0.765625 42.328125 -6.453125 42.328125 -17.078125 L 42.328125 -42.640625 L 33.125 -42.640625 L 33.125 -17.328125 C 33.125 -11.375 29.859375 -7.28125 23.34375 -7.28125 C 16.6875 -7.28125 13.421875 -11.375 13.421875 -17.328125 L 13.421875 -42.640625 L 4.21875 -42.640625 Z M 4.21875 -17 "/></g></g></g><g fill="#000000" fill-opacity="1"><g transform="translate(470.442963, 146.85642)"><g><path d="M 27.359375 0 C 35.484375 0 39.765625 -5.109375 39.765625 -11.515625 C 39.765625 -16.875 36.125 -21.296875 31.578125 -22 C 35.609375 -22.828125 38.9375 -26.40625 38.9375 -31.78125 C 38.9375 -37.46875 34.78125 -42.640625 26.65625 -42.640625 L 4.21875 -42.640625 L 4.21875 0 Z M 13.296875 -34.90625 L 24.6875 -34.90625 C 27.75 -34.90625 29.671875 -32.859375 29.671875 -30.25 C 29.671875 -27.5 27.75 -25.515625 24.6875 -25.515625 L 13.296875 -25.515625 Z M 13.296875 -17.78125 L 25 -17.78125 C 28.578125 -17.78125 30.5 -15.46875 30.5 -12.78125 C 30.5 -9.71875 28.453125 -7.734375 25 -7.734375 L 13.296875 -7.734375 Z M 13.296875 -17.78125 "/></g></g></g><g fill="#000000" fill-opacity="1"><g transform="translate(532.012159, 146.85642)"><g><path d="M 13.296875 0 L 13.296875 -42.640625 L 4.21875 -42.640625 L 4.21875 0 Z M 13.296875 0 "/></g></g></g><g fill="#000000" fill-opacity="1"><g transform="translate(568.711198, 146.85642)"><g><path d="M 27.5625 0 L 43.984375 -42.640625 L 33.625 -42.640625 L 21.859375 -9.84375 L 10.03125 -42.640625 L -0.3125 -42.640625 L 16.171875 0 Z M 27.5625 0 "/></g></g></g><g fill="#000000" fill-opacity="1"><g transform="translate(631.623007, 146.85642)"><g><path d="M 13.296875 0 L 13.296875 -42.640625 L 4.21875 -42.640625 L 4.21875 0 Z M 13.296875 0 "/></g></g></g><g fill="#000000" fill-opacity="1"><g transform="translate(668.322045, 146.85642)"><g><path d="M 1.28125 -6.015625 C 5.3125 -1.984375 11.1875 0.765625 19.375 0.765625 C 30.875 0.765625 36.4375 -5.109375 36.4375 -12.921875 C 36.4375 -22.375 27.5 -24.484375 20.453125 -26.09375 C 15.53125 -27.234375 11.953125 -28.125 11.953125 -31.015625 C 11.953125 -33.5625 14.125 -35.359375 18.21875 -35.359375 C 22.375 -35.359375 26.984375 -33.890625 30.4375 -30.6875 L 35.484375 -37.34375 C 31.265625 -41.234375 25.640625 -43.28125 18.859375 -43.28125 C 8.828125 -43.28125 2.6875 -37.53125 2.6875 -30.4375 C 2.6875 -20.90625 11.640625 -18.984375 18.609375 -17.390625 C 23.53125 -16.234375 27.234375 -15.15625 27.234375 -11.953125 C 27.234375 -9.53125 24.8125 -7.15625 19.828125 -7.15625 C 13.9375 -7.15625 9.265625 -9.78125 6.265625 -12.921875 Z M 1.28125 -6.015625 "/></g></g></g><g fill="#000000" fill-opacity="1"><g transform="translate(725.863425, 146.85642)"><g><path d="M 13.296875 0 L 13.296875 -42.640625 L 4.21875 -42.640625 L 4.21875 0 Z M 13.296875 0 "/></g></g></g><g fill="#000000" fill-opacity="1"><g transform="translate(762.562441, 146.85642)"><g><path d="M 2.171875 -21.296875 C 2.171875 -8.4375 11.578125 0.765625 24.421875 0.765625 C 37.34375 0.765625 46.734375 -8.4375 46.734375 -21.296875 C 46.734375 -34.140625 37.34375 -43.34375 24.421875 -43.34375 C 11.578125 -43.34375 2.171875 -34.140625 2.171875 -21.296875 Z M 37.40625 -21.296875 C 37.40625 -13.359375 32.28125 -7.28125 24.421875 -7.28125 C 16.5625 -7.28125 11.515625 -13.359375 11.515625 -21.296875 C 11.515625 -29.28125 16.5625 -35.296875 24.421875 -35.296875 C 32.28125 -35.296875 37.40625 -29.28125 37.40625 -21.296875 Z M 37.40625 -21.296875 "/></g></g></g><g fill="#000000" fill-opacity="1"><g transform="translate(830.652857, 146.85642)"><g><path d="M 42.390625 0 L 42.390625 -42.640625 L 33.3125 -42.640625 L 33.3125 -15.03125 L 13.5625 -42.640625 L 4.21875 -42.640625 L 4.21875 0 L 13.296875 0 L 13.296875 -28.640625 L 33.625 0 Z M 42.390625 0 "/></g></g></g></svg>